<svg width="829" height="470" viewBox="0 0 829 470" fill="none" xmlns="http://www.w3.org/2000/svg">
<path fill-rule="evenodd" clip-rule="evenodd" d="M381 480.87C373.94 484.009 365.743 485.806 357 485.806C349.976 485.806 343.304 484.646 337.291 482.562C327.646 506.957 300.268 524.55 268 524.55C241.733 524.55 218.706 512.892 205.847 495.397C188.141 523.6 151.201 543 108.5 543C48.5771 543 0 504.797 0 457.671C0 410.544 48.5771 372.341 108.5 372.341C154.425 372.341 193.686 394.781 209.523 426.479C222.836 411.533 244.074 401.86 268 401.86C289.937 401.86 309.614 409.992 322.996 422.864C331.687 416.158 343.713 412.008 357 412.008C357.127 412.008 357.253 412.008 357.38 412.009C357.449 412.009 357.518 412.01 357.587 412.01L357.628 412.011C357.696 412.012 357.764 412.012 357.832 412.013C357.283 408.543 357 404.999 357 401.399C357 358.349 397.518 323.45 447.5 323.45C453.911 323.45 460.167 324.024 466.202 325.116C470.345 247.623 537.842 186 620.5 186C686.538 186 742.899 225.333 765.007 280.668C779.811 269.852 797.93 263.488 817.5 263.488C867.482 263.488 908 304.996 908 356.198C908 372.799 903.74 388.382 896.28 401.86H908V499.643H381V480.87Z" fill="#FFCCDE"/>
<path fill-rule="evenodd" clip-rule="evenodd" d="M851.753 190.04C846.502 280.739 774.307 350.332 690.5 345.48C666.427 344.087 642.862 335.527 621.624 321.884C600.551 378.202 539.359 416.9 469.614 412.862C443.507 411.351 419.281 404.03 398.429 392.399C379.876 422.197 340.802 441.466 296.819 438.92C237.272 435.473 191.277 393.345 194.086 344.825C196.895 296.305 247.444 259.767 306.991 263.214C313.473 263.589 319.794 264.423 325.909 265.673C331.748 191.994 402.51 136.522 485.334 141.317C502.83 142.33 519.482 145.952 534.839 151.732C544.49 64.1257 644.928 -4.15368 726.726 0.581527C810.533 5.43308 857.003 99.3409 851.753 190.04Z" fill="#FBCED6" fill-opacity="0.51"/>
</svg>
