<svg width="533" height="317" viewBox="0 0 533 317" fill="none" xmlns="http://www.w3.org/2000/svg">
<path fill-rule="evenodd" clip-rule="evenodd" d="M435.04 -230.296L-140.067 38.8796L-56.84 243.713C-57.0275 247.149 -57.0105 250.561 -56.7761 253.914C-54.2042 290.693 -25.5778 318.653 7.16281 316.364C34.3329 314.464 55.2051 283.851 60.0512 252.469C60.6144 252.445 61.1795 252.414 61.7461 252.374C87.9975 250.538 108.394 232.172 109.345 210.442C123.247 210.618 135.72 203.395 141.079 191.015C151.708 201.135 165.753 206.86 180.742 205.812C194.064 204.881 205.903 198.754 214.772 189.329C229.602 204.521 250.428 213.311 272.846 211.744C302.345 209.681 326.618 190.242 336.983 163.751C339.647 164.069 342.371 164.142 345.134 163.949C361.434 162.809 375.11 152.685 382.287 138.366C393.441 147.055 407.044 151.747 421.395 150.743C455.559 148.354 481.03 114.597 478.285 75.3444C477.567 65.0827 474.993 55.4613 470.97 46.8894C475.046 47.5263 479.271 47.7195 483.584 47.418C512.624 45.3873 534.623 21.6923 532.721 -5.50626C531.674 -20.4893 523.591 -33.41 511.688 -41.6543L435.04 -230.296Z" fill="#FFCCDE"/>
</svg>
